<?xml version="1.0" encoding="UTF-8" standalone="no"?>
<!DOCTYPE svg PUBLIC "-//W3C//DTD SVG 1.1//EN" "http://www.w3.org/Graphics/SVG/1.1/DTD/svg11.dtd">
<svg width="100%" height="100%" viewBox="0 0 184 47" version="1.1" xmlns="http://www.w3.org/2000/svg" xmlns:xlink="http://www.w3.org/1999/xlink" xml:space="preserve" xmlns:serif="http://www.serif.com/" style="fill-rule:evenodd;clip-rule:evenodd;stroke-linejoin:round;stroke-miterlimit:2;">
    <g transform="matrix(1,0,0,1,-363.663685,-577.748479)">
        <g transform="matrix(1,0,0,1,141.052446,110.768606)">
            <g transform="matrix(2.607749,0,0,2.477441,-495.102748,162.748883)">
                <path d="M300.897,137.628L300.897,136.147C300.831,136.3 300.664,136.517 300.396,136.798C300.128,137.079 299.772,137.332 299.327,137.557C298.883,137.782 298.361,137.895 297.762,137.895C296.879,137.895 296.103,137.679 295.435,137.246C294.767,136.813 294.248,136.232 293.877,135.503C293.507,134.773 293.321,133.962 293.321,133.07C293.321,132.178 293.507,131.367 293.877,130.638C294.248,129.908 294.767,129.325 295.435,128.889C296.103,128.453 296.879,128.234 297.762,128.234C298.339,128.234 298.841,128.326 299.268,128.509C299.695,128.692 300.043,128.907 300.313,129.154C300.583,129.401 300.767,129.627 300.865,129.832L300.865,128.501L304.222,128.501L304.222,137.628L300.897,137.628ZM296.636,133.07C296.636,133.488 296.733,133.861 296.925,134.191C297.118,134.52 297.375,134.778 297.696,134.964C298.018,135.15 298.373,135.243 298.762,135.243C299.17,135.243 299.53,135.149 299.844,134.961C300.157,134.773 300.403,134.514 300.583,134.185C300.763,133.855 300.852,133.484 300.852,133.07C300.852,132.657 300.763,132.285 300.583,131.956C300.403,131.626 300.157,131.366 299.844,131.174C299.53,130.982 299.17,130.886 298.762,130.886C298.373,130.886 298.018,130.981 297.696,131.171C297.375,131.361 297.118,131.62 296.925,131.95C296.733,132.279 296.636,132.653 296.636,133.07Z" style="fill:rgb(57,0,153);fill-rule:nonzero;"/>
                <g transform="matrix(1,0,0,1,-0.620884,0)">
                    <path d="M305.541,128.501L309.154,128.501L311.361,134.564L313.57,128.501L317.167,128.501L313.344,137.628L309.386,137.628L305.541,128.501Z" style="fill:rgb(57,0,153);fill-rule:nonzero;"/>
                </g>
                <g transform="matrix(1,0,0,1,-1.22248,0)">
                    <path d="M318.644,137.628L318.644,128.501L322.016,128.501L322.016,137.628L318.644,137.628ZM320.369,126.626C319.84,126.626 319.391,126.438 319.021,126.063C318.651,125.687 318.466,125.241 318.466,124.723C318.466,124.202 318.652,123.752 319.023,123.371C319.394,122.991 319.842,122.801 320.369,122.801C320.718,122.801 321.038,122.888 321.328,123.062C321.618,123.237 321.852,123.468 322.03,123.756C322.208,124.044 322.298,124.366 322.298,124.723C322.298,125.241 322.109,125.687 321.732,126.063C321.354,126.438 320.9,126.626 320.369,126.626Z" style="fill:rgb(57,0,153);fill-rule:nonzero;"/>
                </g>
                <g transform="matrix(1,0,0,1,-2.099978,0)">
                    <path d="M328.444,128.234C329.038,128.234 329.583,128.285 330.08,128.386C330.578,128.486 330.995,128.6 331.331,128.726C331.668,128.852 331.887,128.954 331.986,129.032L330.886,131.025C330.744,130.918 330.483,130.784 330.103,130.625C329.723,130.465 329.3,130.385 328.832,130.385C328.471,130.385 328.168,130.438 327.923,130.545C327.678,130.651 327.556,130.819 327.556,131.049C327.556,131.275 327.692,131.457 327.964,131.595C328.235,131.734 328.628,131.853 329.14,131.955C329.586,132.047 330.039,132.19 330.497,132.383C330.956,132.576 331.339,132.858 331.649,133.23C331.958,133.603 332.113,134.102 332.113,134.728C332.113,135.366 331.974,135.892 331.696,136.305C331.419,136.717 331.055,137.039 330.605,137.269C330.156,137.5 329.667,137.662 329.138,137.755C328.61,137.848 328.098,137.895 327.602,137.895C326.908,137.895 326.303,137.832 325.788,137.705C325.273,137.579 324.856,137.435 324.538,137.274C324.22,137.113 323.998,136.984 323.873,136.886L324.958,134.662C325.151,134.826 325.466,135.01 325.902,135.213C326.339,135.416 326.803,135.518 327.294,135.518C327.768,135.518 328.134,135.448 328.393,135.307C328.653,135.167 328.783,134.979 328.783,134.744C328.783,134.565 328.721,134.419 328.597,134.305C328.473,134.191 328.294,134.095 328.062,134.016C327.83,133.936 327.552,133.864 327.228,133.798C326.93,133.732 326.615,133.637 326.281,133.512C325.947,133.387 325.633,133.216 325.338,132.999C325.044,132.782 324.804,132.505 324.619,132.17C324.434,131.834 324.342,131.43 324.342,130.957C324.342,130.352 324.537,129.848 324.926,129.446C325.316,129.044 325.823,128.742 326.448,128.539C327.073,128.336 327.739,128.234 328.444,128.234Z" style="fill:rgb(57,0,153);fill-rule:nonzero;"/>
                </g>
                <g transform="matrix(1,0,0,1,-3.134226,0)">
                    <path d="M334.023,137.628L334.023,128.501L337.394,128.501L337.394,137.628L334.023,137.628ZM335.748,126.626C335.219,126.626 334.77,126.438 334.4,126.063C334.03,125.687 333.845,125.241 333.845,124.723C333.845,124.202 334.03,123.752 334.401,123.371C334.772,122.991 335.221,122.801 335.748,122.801C336.097,122.801 336.416,122.888 336.706,123.062C336.996,123.237 337.23,123.468 337.409,123.756C337.587,124.044 337.676,124.366 337.676,124.723C337.676,125.241 337.487,125.687 337.11,126.063C336.733,126.438 336.279,126.626 335.748,126.626Z" style="fill:rgb(57,0,153);fill-rule:nonzero;"/>
                </g>
                <g transform="matrix(1,0,0,1,-3.987581,0)">
                    <path d="M344.373,137.895C343.376,137.895 342.49,137.689 341.714,137.278C340.939,136.867 340.331,136.3 339.889,135.577C339.448,134.853 339.227,134.025 339.227,133.092C339.227,132.16 339.448,131.328 339.889,130.596C340.331,129.864 340.939,129.287 341.714,128.866C342.49,128.445 343.376,128.234 344.373,128.234C345.37,128.234 346.251,128.445 347.015,128.866C347.778,129.287 348.376,129.864 348.808,130.596C349.241,131.328 349.457,132.16 349.457,133.092C349.457,134.025 349.241,134.853 348.808,135.577C348.376,136.3 347.778,136.867 347.015,137.278C346.251,137.689 345.37,137.895 344.373,137.895ZM344.373,135.114C344.761,135.114 345.096,135.028 345.378,134.857C345.659,134.687 345.877,134.447 346.032,134.138C346.186,133.829 346.263,133.475 346.263,133.076C346.263,132.678 346.186,132.323 346.032,132.012C345.877,131.701 345.659,131.457 345.378,131.281C345.096,131.104 344.761,131.016 344.373,131.016C343.985,131.016 343.649,131.104 343.363,131.281C343.078,131.457 342.856,131.701 342.698,132.012C342.54,132.323 342.461,132.678 342.461,133.076C342.461,133.475 342.54,133.829 342.698,134.138C342.856,134.447 343.078,134.687 343.363,134.857C343.649,135.028 343.985,135.114 344.373,135.114Z" style="fill:rgb(57,0,153);fill-rule:nonzero;"/>
                </g>
            </g>
            <g transform="matrix(0.745269,0,0,0.745269,52.05542,291.780056)">
                <g opacity="0.65">
                    <g transform="matrix(1.34534,0,0,1.34534,230.73,234.825583)">
                        <path d="M18.076,5.559C20.608,3.798 23.364,3.067 25.832,4.525C27.581,5.559 28.794,7.364 29.598,9.503C27.529,9.476 25.371,9.752 23.422,10.214C21.866,8.292 20.04,6.581 18.076,5.559Z" style="fill:url(#_Linear1);"/>
                    </g>
                    <g transform="matrix(1.146569,-0.70379,0.70379,1.146569,217.081578,253.964048)">
                        <path d="M18.076,5.559C20.608,3.798 23.364,3.067 25.832,4.525C26.962,5.193 27.868,6.183 28.585,7.377C26.523,7.496 24.304,8.061 22.243,8.858C20.971,7.501 19.563,6.333 18.076,5.559Z" style="fill:url(#_Linear2);"/>
                    </g>
                    <g transform="matrix(0.608992,-1.199612,1.199612,0.608992,215.46161,277.414762)">
                        <path d="M18.076,5.559C20.608,3.798 23.364,3.067 25.832,4.525C26.962,5.193 27.868,6.183 28.585,7.377C26.523,7.496 24.304,8.061 22.243,8.858C20.971,7.501 19.563,6.333 18.076,5.559Z" style="fill:url(#_Linear3);"/>
                    </g>
                    <g transform="matrix(-0.10854,-1.340955,1.340955,-0.10854,226.348791,298.248138)">
                        <path d="M18.076,5.559C20.608,3.798 23.364,3.067 25.832,4.525C26.962,5.193 27.868,6.183 28.585,7.377C26.523,7.496 24.304,8.061 22.243,8.858C20.971,7.501 19.563,6.333 18.076,5.559Z" style="fill:url(#_Linear4);"/>
                    </g>
                    <g transform="matrix(-0.793999,-1.086051,1.086051,-0.793999,246.526005,310.308003)">
                        <path d="M18.076,5.559C20.608,3.798 23.364,3.067 25.832,4.525C26.962,5.193 27.868,6.183 28.585,7.377C26.523,7.496 24.304,8.061 22.243,8.858C20.971,7.501 19.563,6.333 18.076,5.559Z" style="fill:url(#_Linear5);"/>
                    </g>
                    <g transform="matrix(-1.244834,-0.510223,0.510223,-1.244834,270.03097,310.030716)">
                        <path d="M18.076,5.559C20.608,3.798 23.364,3.067 25.832,4.525C26.962,5.193 27.868,6.183 28.585,7.377C26.523,7.496 24.304,8.061 22.243,8.858C20.971,7.501 19.563,6.333 18.076,5.559Z" style="fill:url(#_Linear6);"/>
                    </g>
                    <g transform="matrix(-1.327826,0.216373,-0.216373,-1.327826,289.918069,297.498216)">
                        <path d="M18.076,5.559C20.608,3.798 23.364,3.067 25.832,4.525C26.962,5.193 27.868,6.183 28.585,7.377C26.523,7.496 24.304,8.061 22.243,8.858C20.971,7.501 19.563,6.333 18.076,5.559Z" style="fill:url(#_Linear7);"/>
                    </g>
                    <g transform="matrix(-1.018451,0.879032,-0.879032,-1.018451,300.310749,276.413803)">
                        <path d="M18.076,5.559C20.608,3.798 23.364,3.067 25.832,4.525C26.962,5.193 27.868,6.183 28.585,7.377C26.523,7.496 24.304,8.061 22.243,8.858C20.971,7.501 19.563,6.333 18.076,5.559Z" style="fill:url(#_Linear8);"/>
                    </g>
                    <g transform="matrix(-0.408128,1.281941,-1.281941,-0.408128,298.138017,253.007831)">
                        <path d="M18.076,5.559C20.608,3.798 23.364,3.067 25.832,4.525C26.962,5.193 27.868,6.183 28.585,7.377C26.523,7.496 24.304,8.061 22.243,8.858C20.971,7.501 19.563,6.333 18.076,5.559Z" style="fill:url(#_Linear9);"/>
                    </g>
                    <g transform="matrix(0.322795,1.306041,-1.306041,0.322795,284.041905,234.196667)">
                        <path d="M18.076,5.559C20.608,3.798 23.364,3.067 25.832,4.525C26.962,5.193 27.868,6.183 28.585,7.377C26.523,7.496 24.304,8.061 22.243,8.858C20.971,7.501 19.563,6.333 18.076,5.559Z" style="fill:url(#_Linear10);"/>
                    </g>
                    <g transform="matrix(0.958334,0.944212,-0.944212,0.958334,262.187756,225.538928)">
                        <path d="M15.942,7.324C18.984,4.405 22.648,2.644 25.832,4.525C26.962,5.193 27.868,6.183 28.585,7.377C25.742,7.541 22.602,8.553 19.986,9.85C18.708,8.853 17.338,7.97 15.942,7.324Z" style="fill:url(#_Linear11);"/>
                    </g>
                </g>
                <g opacity="0.85">
                    <g transform="matrix(1.146569,-0.70379,0.70379,1.146569,217.081578,253.964048)">
                        <path d="M22.243,8.858C24.304,8.061 26.523,7.496 28.585,7.377C29.724,9.275 30.385,11.688 30.706,14.141C28.774,13.506 26.926,13.147 25.493,13.123C24.571,11.651 23.47,10.167 22.243,8.858Z" style="fill:url(#_Linear12);"/>
                    </g>
                    <g transform="matrix(0.608992,-1.199612,1.199612,0.608992,215.46161,277.414762)">
                        <path d="M22.243,8.858C24.304,8.061 26.523,7.496 28.585,7.377C29.448,8.814 30.036,10.547 30.41,12.368C28.406,12 26.413,11.869 24.728,11.96C23.982,10.881 23.146,9.822 22.243,8.858Z" style="fill:url(#_Linear13);"/>
                    </g>
                    <g transform="matrix(-0.10854,-1.340955,1.340955,-0.10854,226.348791,298.248138)">
                        <path d="M22.243,8.858C24.304,8.061 26.523,7.496 28.585,7.377C29.448,8.814 30.036,10.547 30.41,12.368C28.406,12 26.413,11.869 24.728,11.96C23.982,10.881 23.146,9.822 22.243,8.858Z" style="fill:url(#_Linear14);"/>
                    </g>
                    <g transform="matrix(-0.793999,-1.086051,1.086051,-0.793999,246.526005,310.308003)">
                        <path d="M30.41,12.368C30.036,10.547 29.448,8.814 28.585,7.377C26.523,7.496 24.304,8.061 22.243,8.858C23.146,9.822 23.982,10.881 24.728,11.96C26.413,11.869 28.406,12 30.41,12.368Z" style="fill:url(#_Linear15);"/>
                    </g>
                    <g transform="matrix(-1.244834,-0.510223,0.510223,-1.244834,270.03097,310.030716)">
                        <path d="M28.585,7.377C26.523,7.496 24.304,8.061 22.243,8.858C23.146,9.822 23.982,10.881 24.728,11.96C26.413,11.869 28.406,12 30.41,12.368C30.036,10.547 29.448,8.814 28.585,7.377Z" style="fill:url(#_Linear16);"/>
                    </g>
                    <g transform="matrix(-1.327826,0.216373,-0.216373,-1.327826,289.918069,297.498216)">
                        <path d="M28.585,7.377C26.523,7.496 24.304,8.061 22.243,8.858C23.146,9.822 23.982,10.881 24.728,11.96C26.413,11.869 28.406,12 30.41,12.368C30.036,10.547 29.448,8.814 28.585,7.377Z" style="fill:url(#_Linear17);"/>
                    </g>
                    <g transform="matrix(-1.018451,0.879032,-0.879032,-1.018451,300.310749,276.413803)">
                        <path d="M28.585,7.377C26.523,7.496 24.304,8.061 22.243,8.858C23.146,9.822 23.982,10.881 24.728,11.96C26.413,11.869 28.406,12 30.41,12.368C30.036,10.547 29.448,8.814 28.585,7.377Z" style="fill:url(#_Linear18);"/>
                    </g>
                    <g transform="matrix(-0.408128,1.281941,-1.281941,-0.408128,298.138017,253.007831)">
                        <path d="M22.243,8.858C24.304,8.061 26.523,7.496 28.585,7.377C29.448,8.814 30.036,10.547 30.41,12.368C28.406,12 26.413,11.869 24.728,11.96C23.982,10.881 23.146,9.822 22.243,8.858Z" style="fill:url(#_Linear19);"/>
                    </g>
                    <g transform="matrix(0.322795,1.306041,-1.306041,0.322795,284.041905,234.196667)">
                        <path d="M22.243,8.858C24.304,8.061 26.523,7.496 28.585,7.377C29.448,8.814 30.036,10.547 30.41,12.368C28.406,12 26.413,11.869 24.728,11.96C23.982,10.881 23.146,9.822 22.243,8.858Z" style="fill:url(#_Linear20);"/>
                    </g>
                    <g transform="matrix(0.958334,0.944212,-0.944212,0.958334,262.187756,225.538928)">
                        <path d="M15.942,7.324C14.449,8.757 13.105,10.468 12.041,12.165C13.241,12.3 14.43,12.516 15.559,12.784C16.596,11.795 18.164,10.754 19.986,9.85C18.708,8.853 17.338,7.97 15.942,7.324Z" style="fill:url(#_Linear21);"/>
                    </g>
                    <g transform="matrix(0.958334,0.944212,-0.944212,0.958334,262.187756,225.538928)">
                        <path d="M19.986,9.85C22.602,8.553 25.742,7.541 28.585,7.377C29.448,8.814 30.036,10.547 30.41,12.368C27.501,11.833 24.614,11.799 22.66,12.218C21.838,11.399 20.938,10.593 19.986,9.85Z" style="fill:url(#_Linear22);"/>
                    </g>
                </g>
                <g transform="matrix(0.608992,-1.199612,1.199612,0.608992,215.46161,277.414762)">
                    <path d="M17.186,11.483C18.574,10.524 20.342,9.593 22.243,8.858C23.146,9.822 23.982,10.881 24.728,11.96C26.413,11.869 28.406,12 30.41,12.368C30.772,14.126 30.933,15.967 30.95,17.704C32.158,18.474 33.546,19.746 34.86,21.298C34.367,22.4 33.801,23.468 33.203,24.462C33.831,25.751 34.348,27.561 34.656,29.571C33.659,30.253 32.618,30.866 31.588,31.401C31.395,33.389 30.486,36.13 29.094,38.74C27.78,38.601 26.456,38.345 25.186,38.016C23.97,39.185 22.375,40.389 20.617,41.42C19.57,40.614 18.576,39.703 17.666,38.758C16.017,39.118 14.029,39.31 11.991,39.269C11.52,38.034 11.149,36.737 10.868,35.456C9.275,34.901 7.48,34.024 5.765,32.923C6.01,31.624 6.371,30.325 6.802,29.086C5.734,27.78 4.664,26.093 3.778,24.258C4.666,23.279 5.654,22.361 6.669,21.531C6.443,19.858 6.412,17.861 6.618,15.833C7.887,15.464 9.209,15.198 10.509,15.022C11.19,13.478 12.209,11.76 13.445,10.139C14.72,10.488 15.985,10.953 17.186,11.483Z" style="fill:url(#_Linear23);"/>
                </g>
                <g transform="matrix(1.022444,0,0,1.022444,-5.597853,-5.65123)">
                    <g transform="matrix(0,1.179712,-1.154791,0,401.469364,-83.25632)">
                        <path d="M303.199,136.521L293.48,132.403C293.11,132.247 292.87,131.884 292.87,131.483L292.87,128.977C292.87,128.576 293.109,128.214 293.478,128.057L303.197,123.918C303.506,123.786 303.86,123.818 304.141,124.004C304.421,124.189 304.589,124.502 304.589,124.838L304.589,127.772C304.589,128.182 304.338,128.551 303.956,128.702L300.137,130.234L303.952,131.748C304.336,131.898 304.589,132.268 304.589,132.68L304.589,135.6C304.589,135.935 304.421,136.248 304.141,136.433C303.862,136.619 303.508,136.651 303.199,136.521Z" style="fill:white;"/>
                    </g>
                    <g transform="matrix(0,-1.179712,1.179712,0,110.340121,621.254799)">
                        <path d="M303.199,136.521L293.48,132.403C293.11,132.247 292.87,131.884 292.87,131.483L292.87,128.977C292.87,128.576 293.109,128.214 293.478,128.057L303.197,123.918C303.506,123.786 303.86,123.818 304.141,124.004C304.421,124.189 304.589,124.502 304.589,124.838L304.589,127.772C304.589,128.182 304.338,128.551 303.956,128.702L300.072,130.235L303.952,131.748C304.336,131.898 304.589,132.268 304.589,132.68L304.589,135.6C304.589,135.935 304.421,136.248 304.141,136.433C303.862,136.619 303.508,136.651 303.199,136.521Z" style="fill:white;"/>
                    </g>
                </g>
            </g>
        </g>
    </g>
    <defs>
        <linearGradient id="_Linear1" x1="0" y1="0" x2="1" y2="0" gradientUnits="userSpaceOnUse" gradientTransform="matrix(42.2333,-40.900969,40.900969,42.2333,-0.65402,45.827166)"><stop offset="0" style="stop-color:rgb(255,162,22);stop-opacity:1"/><stop offset="0.2" style="stop-color:rgb(248,105,42);stop-opacity:1"/><stop offset="0.41" style="stop-color:rgb(241,47,63);stop-opacity:1"/><stop offset="1" style="stop-color:rgb(238,21,72);stop-opacity:1"/></linearGradient>
        <linearGradient id="_Linear2" x1="0" y1="0" x2="1" y2="0" gradientUnits="userSpaceOnUse" gradientTransform="matrix(57.389995,-12.764378,12.764378,57.389995,-8.443018,31.897387)"><stop offset="0" style="stop-color:rgb(255,162,22);stop-opacity:1"/><stop offset="0.2" style="stop-color:rgb(248,105,42);stop-opacity:1"/><stop offset="0.41" style="stop-color:rgb(241,47,63);stop-opacity:1"/><stop offset="1" style="stop-color:rgb(238,21,72);stop-opacity:1"/></linearGradient>
        <linearGradient id="_Linear3" x1="0" y1="0" x2="1" y2="0" gradientUnits="userSpaceOnUse" gradientTransform="matrix(55.58819,19.144033,-19.144033,55.58819,-7.794105,15.951034)"><stop offset="0" style="stop-color:rgb(255,162,22);stop-opacity:1"/><stop offset="0.2" style="stop-color:rgb(248,105,42);stop-opacity:1"/><stop offset="0.41" style="stop-color:rgb(241,47,63);stop-opacity:1"/><stop offset="1" style="stop-color:rgb(238,21,72);stop-opacity:1"/></linearGradient>
        <linearGradient id="_Linear4" x1="0" y1="0" x2="1" y2="0" gradientUnits="userSpaceOnUse" gradientTransform="matrix(37.360311,45.395463,-45.395463,37.360311,1.100967,2.700188)"><stop offset="0" style="stop-color:rgb(255,162,22);stop-opacity:1"/><stop offset="0.2" style="stop-color:rgb(248,105,42);stop-opacity:1"/><stop offset="0.41" style="stop-color:rgb(241,47,63);stop-opacity:1"/><stop offset="1" style="stop-color:rgb(238,21,72);stop-opacity:1"/></linearGradient>
        <linearGradient id="_Linear5" x1="0" y1="0" x2="1" y2="0" gradientUnits="userSpaceOnUse" gradientTransform="matrix(8.092618,58.232726,-58.232726,8.092618,15.613744,-3.939583)"><stop offset="0" style="stop-color:rgb(255,162,22);stop-opacity:1"/><stop offset="0.2" style="stop-color:rgb(248,105,42);stop-opacity:1"/><stop offset="0.41" style="stop-color:rgb(241,47,63);stop-opacity:1"/><stop offset="1" style="stop-color:rgb(238,21,72);stop-opacity:1"/></linearGradient>
        <linearGradient id="_Linear6" x1="0" y1="0" x2="1" y2="0" gradientUnits="userSpaceOnUse" gradientTransform="matrix(-23.566409,53.862466,-53.862466,-23.566409,31.455761,-2.006255)"><stop offset="0" style="stop-color:rgb(255,162,22);stop-opacity:1"/><stop offset="0.2" style="stop-color:rgb(248,105,42);stop-opacity:1"/><stop offset="0.41" style="stop-color:rgb(241,47,63);stop-opacity:1"/><stop offset="1" style="stop-color:rgb(238,21,72);stop-opacity:1"/></linearGradient>
        <linearGradient id="_Linear7" x1="0" y1="0" x2="1" y2="0" gradientUnits="userSpaceOnUse" gradientTransform="matrix(-48.261662,33.576075,-33.576075,-48.261662,43.945768,7.928883)"><stop offset="0" style="stop-color:rgb(255,162,22);stop-opacity:1"/><stop offset="0.2" style="stop-color:rgb(248,105,42);stop-opacity:1"/><stop offset="0.41" style="stop-color:rgb(241,47,63);stop-opacity:1"/><stop offset="1" style="stop-color:rgb(238,21,72);stop-opacity:1"/></linearGradient>
        <linearGradient id="_Linear8" x1="0" y1="0" x2="1" y2="0" gradientUnits="userSpaceOnUse" gradientTransform="matrix(-58.695799,3.368097,-3.368097,-58.695799,49.393023,22.930038)"><stop offset="0" style="stop-color:rgb(255,162,22);stop-opacity:1"/><stop offset="0.2" style="stop-color:rgb(248,105,42);stop-opacity:1"/><stop offset="0.41" style="stop-color:rgb(241,47,63);stop-opacity:1"/><stop offset="1" style="stop-color:rgb(238,21,72);stop-opacity:1"/></linearGradient>
        <linearGradient id="_Linear9" x1="0" y1="0" x2="1" y2="0" gradientUnits="userSpaceOnUse" gradientTransform="matrix(-51.785576,-27.83514,27.83514,-51.785576,46.187884,38.564434)"><stop offset="0" style="stop-color:rgb(255,162,22);stop-opacity:1"/><stop offset="0.2" style="stop-color:rgb(248,105,42);stop-opacity:1"/><stop offset="0.41" style="stop-color:rgb(241,47,63);stop-opacity:1"/><stop offset="1" style="stop-color:rgb(238,21,72);stop-opacity:1"/></linearGradient>
        <linearGradient id="_Linear10" x1="0" y1="0" x2="1" y2="0" gradientUnits="userSpaceOnUse" gradientTransform="matrix(-29.572935,-50.813211,50.813211,-29.572935,35.277456,50.212172)"><stop offset="0" style="stop-color:rgb(255,162,22);stop-opacity:1"/><stop offset="0.2" style="stop-color:rgb(248,105,42);stop-opacity:1"/><stop offset="0.41" style="stop-color:rgb(241,47,63);stop-opacity:1"/><stop offset="1" style="stop-color:rgb(238,21,72);stop-opacity:1"/></linearGradient>
        <linearGradient id="_Linear11" x1="0" y1="0" x2="1" y2="0" gradientUnits="userSpaceOnUse" gradientTransform="matrix(1.378383,-58.776194,58.776194,1.378383,19.885724,54.431396)"><stop offset="0" style="stop-color:rgb(255,162,22);stop-opacity:1"/><stop offset="0.2" style="stop-color:rgb(248,105,42);stop-opacity:1"/><stop offset="0.41" style="stop-color:rgb(241,47,63);stop-opacity:1"/><stop offset="1" style="stop-color:rgb(238,21,72);stop-opacity:1"/></linearGradient>
        <linearGradient id="_Linear12" x1="0" y1="0" x2="1" y2="0" gradientUnits="userSpaceOnUse" gradientTransform="matrix(57.389995,-12.764378,12.764378,57.389995,-8.443018,31.897387)"><stop offset="0" style="stop-color:rgb(255,162,22);stop-opacity:1"/><stop offset="0.2" style="stop-color:rgb(248,105,42);stop-opacity:1"/><stop offset="0.41" style="stop-color:rgb(241,47,63);stop-opacity:1"/><stop offset="1" style="stop-color:rgb(238,21,72);stop-opacity:1"/></linearGradient>
        <linearGradient id="_Linear13" x1="0" y1="0" x2="1" y2="0" gradientUnits="userSpaceOnUse" gradientTransform="matrix(55.58819,19.144033,-19.144033,55.58819,-7.794105,15.951034)"><stop offset="0" style="stop-color:rgb(255,162,22);stop-opacity:1"/><stop offset="0.2" style="stop-color:rgb(248,105,42);stop-opacity:1"/><stop offset="0.41" style="stop-color:rgb(241,47,63);stop-opacity:1"/><stop offset="1" style="stop-color:rgb(238,21,72);stop-opacity:1"/></linearGradient>
        <linearGradient id="_Linear14" x1="0" y1="0" x2="1" y2="0" gradientUnits="userSpaceOnUse" gradientTransform="matrix(37.360311,45.395463,-45.395463,37.360311,1.100967,2.700188)"><stop offset="0" style="stop-color:rgb(255,162,22);stop-opacity:1"/><stop offset="0.2" style="stop-color:rgb(248,105,42);stop-opacity:1"/><stop offset="0.41" style="stop-color:rgb(241,47,63);stop-opacity:1"/><stop offset="1" style="stop-color:rgb(238,21,72);stop-opacity:1"/></linearGradient>
        <linearGradient id="_Linear15" x1="0" y1="0" x2="1" y2="0" gradientUnits="userSpaceOnUse" gradientTransform="matrix(8.092618,58.232726,-58.232726,8.092618,15.613744,-3.939583)"><stop offset="0" style="stop-color:rgb(255,162,22);stop-opacity:1"/><stop offset="0.2" style="stop-color:rgb(248,105,42);stop-opacity:1"/><stop offset="0.41" style="stop-color:rgb(241,47,63);stop-opacity:1"/><stop offset="1" style="stop-color:rgb(238,21,72);stop-opacity:1"/></linearGradient>
        <linearGradient id="_Linear16" x1="0" y1="0" x2="1" y2="0" gradientUnits="userSpaceOnUse" gradientTransform="matrix(-23.566409,53.862466,-53.862466,-23.566409,31.455761,-2.006255)"><stop offset="0" style="stop-color:rgb(255,162,22);stop-opacity:1"/><stop offset="0.2" style="stop-color:rgb(248,105,42);stop-opacity:1"/><stop offset="0.41" style="stop-color:rgb(241,47,63);stop-opacity:1"/><stop offset="1" style="stop-color:rgb(238,21,72);stop-opacity:1"/></linearGradient>
        <linearGradient id="_Linear17" x1="0" y1="0" x2="1" y2="0" gradientUnits="userSpaceOnUse" gradientTransform="matrix(-48.261662,33.576075,-33.576075,-48.261662,43.945768,7.928883)"><stop offset="0" style="stop-color:rgb(255,162,22);stop-opacity:1"/><stop offset="0.2" style="stop-color:rgb(248,105,42);stop-opacity:1"/><stop offset="0.41" style="stop-color:rgb(241,47,63);stop-opacity:1"/><stop offset="1" style="stop-color:rgb(238,21,72);stop-opacity:1"/></linearGradient>
        <linearGradient id="_Linear18" x1="0" y1="0" x2="1" y2="0" gradientUnits="userSpaceOnUse" gradientTransform="matrix(-58.695799,3.368097,-3.368097,-58.695799,49.393023,22.930038)"><stop offset="0" style="stop-color:rgb(255,162,22);stop-opacity:1"/><stop offset="0.2" style="stop-color:rgb(248,105,42);stop-opacity:1"/><stop offset="0.41" style="stop-color:rgb(241,47,63);stop-opacity:1"/><stop offset="1" style="stop-color:rgb(238,21,72);stop-opacity:1"/></linearGradient>
        <linearGradient id="_Linear19" x1="0" y1="0" x2="1" y2="0" gradientUnits="userSpaceOnUse" gradientTransform="matrix(-51.785576,-27.83514,27.83514,-51.785576,46.187884,38.564434)"><stop offset="0" style="stop-color:rgb(255,162,22);stop-opacity:1"/><stop offset="0.2" style="stop-color:rgb(248,105,42);stop-opacity:1"/><stop offset="0.41" style="stop-color:rgb(241,47,63);stop-opacity:1"/><stop offset="1" style="stop-color:rgb(238,21,72);stop-opacity:1"/></linearGradient>
        <linearGradient id="_Linear20" x1="0" y1="0" x2="1" y2="0" gradientUnits="userSpaceOnUse" gradientTransform="matrix(-29.572935,-50.813211,50.813211,-29.572935,35.277456,50.212172)"><stop offset="0" style="stop-color:rgb(255,162,22);stop-opacity:1"/><stop offset="0.2" style="stop-color:rgb(248,105,42);stop-opacity:1"/><stop offset="0.41" style="stop-color:rgb(241,47,63);stop-opacity:1"/><stop offset="1" style="stop-color:rgb(238,21,72);stop-opacity:1"/></linearGradient>
        <linearGradient id="_Linear21" x1="0" y1="0" x2="1" y2="0" gradientUnits="userSpaceOnUse" gradientTransform="matrix(1.378383,-58.776194,58.776194,1.378383,19.885724,54.431396)"><stop offset="0" style="stop-color:rgb(255,162,22);stop-opacity:1"/><stop offset="0.2" style="stop-color:rgb(248,105,42);stop-opacity:1"/><stop offset="0.41" style="stop-color:rgb(241,47,63);stop-opacity:1"/><stop offset="1" style="stop-color:rgb(238,21,72);stop-opacity:1"/></linearGradient>
        <linearGradient id="_Linear22" x1="0" y1="0" x2="1" y2="0" gradientUnits="userSpaceOnUse" gradientTransform="matrix(1.378383,-58.776194,58.776194,1.378383,19.885724,54.431396)"><stop offset="0" style="stop-color:rgb(255,162,22);stop-opacity:1"/><stop offset="0.2" style="stop-color:rgb(248,105,42);stop-opacity:1"/><stop offset="0.41" style="stop-color:rgb(241,47,63);stop-opacity:1"/><stop offset="1" style="stop-color:rgb(238,21,72);stop-opacity:1"/></linearGradient>
        <linearGradient id="_Linear23" x1="0" y1="0" x2="1" y2="0" gradientUnits="userSpaceOnUse" gradientTransform="matrix(55.58819,19.144033,-19.144033,55.58819,-7.794105,15.951034)"><stop offset="0" style="stop-color:rgb(255,162,22);stop-opacity:1"/><stop offset="0.2" style="stop-color:rgb(248,105,42);stop-opacity:1"/><stop offset="0.41" style="stop-color:rgb(241,47,63);stop-opacity:1"/><stop offset="1" style="stop-color:rgb(238,21,72);stop-opacity:1"/></linearGradient>
    </defs>
</svg>
