<?xml version="1.0" encoding="UTF-8" standalone="no"?>
<!DOCTYPE svg PUBLIC "-//W3C//DTD SVG 1.1//EN" "http://www.w3.org/Graphics/SVG/1.1/DTD/svg11.dtd">
<svg width="100%" height="100%" viewBox="0 0 44 44" version="1.1" xmlns="http://www.w3.org/2000/svg" xmlns:xlink="http://www.w3.org/1999/xlink" xml:space="preserve" xmlns:serif="http://www.serif.com/" style="fill-rule:evenodd;clip-rule:evenodd;stroke-linejoin:round;stroke-miterlimit:2;">
    <g transform="matrix(1,0,0,1,-26.7552,-596.632)">
        <g transform="matrix(0.745269,0,0,0.745269,-143.801,417.867)">
            <g opacity="0.65">
                <g transform="matrix(1.34534,0,0,1.34534,230.73,234.826)">
                    <path d="M18.076,5.559C20.608,3.798 23.364,3.067 25.832,4.525C27.581,5.559 28.794,7.364 29.598,9.503C27.529,9.476 25.371,9.752 23.422,10.214C21.866,8.292 20.04,6.581 18.076,5.559Z" style="fill:url(#_Linear1);"/>
                </g>
                <g transform="matrix(1.14657,-0.70379,0.70379,1.14657,217.082,253.964)">
                    <path d="M18.076,5.559C20.608,3.798 23.364,3.067 25.832,4.525C26.962,5.193 27.868,6.183 28.585,7.377C26.523,7.496 24.304,8.061 22.243,8.858C20.971,7.501 19.563,6.333 18.076,5.559Z" style="fill:url(#_Linear2);"/>
                </g>
                <g transform="matrix(0.608992,-1.19961,1.19961,0.608992,215.462,277.415)">
                    <path d="M18.076,5.559C20.608,3.798 23.364,3.067 25.832,4.525C26.962,5.193 27.868,6.183 28.585,7.377C26.523,7.496 24.304,8.061 22.243,8.858C20.971,7.501 19.563,6.333 18.076,5.559Z" style="fill:url(#_Linear3);"/>
                </g>
                <g transform="matrix(-0.10854,-1.34095,1.34095,-0.10854,226.349,298.248)">
                    <path d="M18.076,5.559C20.608,3.798 23.364,3.067 25.832,4.525C26.962,5.193 27.868,6.183 28.585,7.377C26.523,7.496 24.304,8.061 22.243,8.858C20.971,7.501 19.563,6.333 18.076,5.559Z" style="fill:url(#_Linear4);"/>
                </g>
                <g transform="matrix(-0.793999,-1.08605,1.08605,-0.793999,246.526,310.308)">
                    <path d="M18.076,5.559C20.608,3.798 23.364,3.067 25.832,4.525C26.962,5.193 27.868,6.183 28.585,7.377C26.523,7.496 24.304,8.061 22.243,8.858C20.971,7.501 19.563,6.333 18.076,5.559Z" style="fill:url(#_Linear5);"/>
                </g>
                <g transform="matrix(-1.24483,-0.510223,0.510223,-1.24483,270.031,310.031)">
                    <path d="M18.076,5.559C20.608,3.798 23.364,3.067 25.832,4.525C26.962,5.193 27.868,6.183 28.585,7.377C26.523,7.496 24.304,8.061 22.243,8.858C20.971,7.501 19.563,6.333 18.076,5.559Z" style="fill:url(#_Linear6);"/>
                </g>
                <g transform="matrix(-1.32783,0.216373,-0.216373,-1.32783,289.918,297.498)">
                    <path d="M18.076,5.559C20.608,3.798 23.364,3.067 25.832,4.525C26.962,5.193 27.868,6.183 28.585,7.377C26.523,7.496 24.304,8.061 22.243,8.858C20.971,7.501 19.563,6.333 18.076,5.559Z" style="fill:url(#_Linear7);"/>
                </g>
                <g transform="matrix(-1.01845,0.879032,-0.879032,-1.01845,300.311,276.414)">
                    <path d="M18.076,5.559C20.608,3.798 23.364,3.067 25.832,4.525C26.962,5.193 27.868,6.183 28.585,7.377C26.523,7.496 24.304,8.061 22.243,8.858C20.971,7.501 19.563,6.333 18.076,5.559Z" style="fill:url(#_Linear8);"/>
                </g>
                <g transform="matrix(-0.408128,1.28194,-1.28194,-0.408128,298.138,253.008)">
                    <path d="M18.076,5.559C20.608,3.798 23.364,3.067 25.832,4.525C26.962,5.193 27.868,6.183 28.585,7.377C26.523,7.496 24.304,8.061 22.243,8.858C20.971,7.501 19.563,6.333 18.076,5.559Z" style="fill:url(#_Linear9);"/>
                </g>
                <g transform="matrix(0.322795,1.30604,-1.30604,0.322795,284.042,234.197)">
                    <path d="M18.076,5.559C20.608,3.798 23.364,3.067 25.832,4.525C26.962,5.193 27.868,6.183 28.585,7.377C26.523,7.496 24.304,8.061 22.243,8.858C20.971,7.501 19.563,6.333 18.076,5.559Z" style="fill:url(#_Linear10);"/>
                </g>
                <g transform="matrix(0.958334,0.944212,-0.944212,0.958334,262.188,225.539)">
                    <path d="M15.942,7.324C18.984,4.405 22.648,2.644 25.832,4.525C26.962,5.193 27.868,6.183 28.585,7.377C25.742,7.541 22.602,8.553 19.986,9.85C18.708,8.853 17.338,7.97 15.942,7.324Z" style="fill:url(#_Linear11);"/>
                </g>
            </g>
            <g opacity="0.85">
                <g transform="matrix(1.14657,-0.70379,0.70379,1.14657,217.082,253.964)">
                    <path d="M22.243,8.858C24.304,8.061 26.523,7.496 28.585,7.377C29.724,9.275 30.385,11.688 30.706,14.141C28.774,13.506 26.926,13.147 25.493,13.123C24.571,11.651 23.47,10.167 22.243,8.858Z" style="fill:url(#_Linear12);"/>
                </g>
                <g transform="matrix(0.608992,-1.19961,1.19961,0.608992,215.462,277.415)">
                    <path d="M22.243,8.858C24.304,8.061 26.523,7.496 28.585,7.377C29.448,8.814 30.036,10.547 30.41,12.368C28.406,12 26.413,11.869 24.728,11.96C23.982,10.881 23.146,9.822 22.243,8.858Z" style="fill:url(#_Linear13);"/>
                </g>
                <g transform="matrix(-0.10854,-1.34095,1.34095,-0.10854,226.349,298.248)">
                    <path d="M22.243,8.858C24.304,8.061 26.523,7.496 28.585,7.377C29.448,8.814 30.036,10.547 30.41,12.368C28.406,12 26.413,11.869 24.728,11.96C23.982,10.881 23.146,9.822 22.243,8.858Z" style="fill:url(#_Linear14);"/>
                </g>
                <g transform="matrix(-0.793999,-1.08605,1.08605,-0.793999,246.526,310.308)">
                    <path d="M30.41,12.368C30.036,10.547 29.448,8.814 28.585,7.377C26.523,7.496 24.304,8.061 22.243,8.858C23.146,9.822 23.982,10.881 24.728,11.96C26.413,11.869 28.406,12 30.41,12.368Z" style="fill:url(#_Linear15);"/>
                </g>
                <g transform="matrix(-1.24483,-0.510223,0.510223,-1.24483,270.031,310.031)">
                    <path d="M28.585,7.377C26.523,7.496 24.304,8.061 22.243,8.858C23.146,9.822 23.982,10.881 24.728,11.96C26.413,11.869 28.406,12 30.41,12.368C30.036,10.547 29.448,8.814 28.585,7.377Z" style="fill:url(#_Linear16);"/>
                </g>
                <g transform="matrix(-1.32783,0.216373,-0.216373,-1.32783,289.918,297.498)">
                    <path d="M28.585,7.377C26.523,7.496 24.304,8.061 22.243,8.858C23.146,9.822 23.982,10.881 24.728,11.96C26.413,11.869 28.406,12 30.41,12.368C30.036,10.547 29.448,8.814 28.585,7.377Z" style="fill:url(#_Linear17);"/>
                </g>
                <g transform="matrix(-1.01845,0.879032,-0.879032,-1.01845,300.311,276.414)">
                    <path d="M28.585,7.377C26.523,7.496 24.304,8.061 22.243,8.858C23.146,9.822 23.982,10.881 24.728,11.96C26.413,11.869 28.406,12 30.41,12.368C30.036,10.547 29.448,8.814 28.585,7.377Z" style="fill:url(#_Linear18);"/>
                </g>
                <g transform="matrix(-0.408128,1.28194,-1.28194,-0.408128,298.138,253.008)">
                    <path d="M22.243,8.858C24.304,8.061 26.523,7.496 28.585,7.377C29.448,8.814 30.036,10.547 30.41,12.368C28.406,12 26.413,11.869 24.728,11.96C23.982,10.881 23.146,9.822 22.243,8.858Z" style="fill:url(#_Linear19);"/>
                </g>
                <g transform="matrix(0.322795,1.30604,-1.30604,0.322795,284.042,234.197)">
                    <path d="M22.243,8.858C24.304,8.061 26.523,7.496 28.585,7.377C29.448,8.814 30.036,10.547 30.41,12.368C28.406,12 26.413,11.869 24.728,11.96C23.982,10.881 23.146,9.822 22.243,8.858Z" style="fill:url(#_Linear20);"/>
                </g>
                <g transform="matrix(0.958334,0.944212,-0.944212,0.958334,262.188,225.539)">
                    <path d="M15.942,7.324C14.449,8.757 13.105,10.468 12.041,12.165C13.241,12.3 14.43,12.516 15.559,12.784C16.596,11.795 18.164,10.754 19.986,9.85C18.708,8.853 17.338,7.97 15.942,7.324Z" style="fill:url(#_Linear21);"/>
                </g>
                <g transform="matrix(0.958334,0.944212,-0.944212,0.958334,262.188,225.539)">
                    <path d="M19.986,9.85C22.602,8.553 25.742,7.541 28.585,7.377C29.448,8.814 30.036,10.547 30.41,12.368C27.501,11.833 24.614,11.799 22.66,12.218C21.838,11.399 20.938,10.593 19.986,9.85Z" style="fill:url(#_Linear22);"/>
                </g>
            </g>
            <g transform="matrix(0.608992,-1.19961,1.19961,0.608992,215.462,277.415)">
                <path d="M17.186,11.483C18.574,10.524 20.342,9.593 22.243,8.858C23.146,9.822 23.982,10.881 24.728,11.96C26.413,11.869 28.406,12 30.41,12.368C30.772,14.126 30.933,15.967 30.95,17.704C32.158,18.474 33.546,19.746 34.86,21.298C34.367,22.4 33.801,23.468 33.203,24.462C33.831,25.751 34.348,27.561 34.656,29.571C33.659,30.253 32.618,30.866 31.588,31.401C31.395,33.389 30.486,36.13 29.094,38.74C27.78,38.601 26.456,38.345 25.186,38.016C23.97,39.185 22.375,40.389 20.617,41.42C19.57,40.614 18.576,39.703 17.666,38.758C16.017,39.118 14.029,39.31 11.991,39.269C11.52,38.034 11.149,36.737 10.868,35.456C9.275,34.901 7.48,34.024 5.765,32.923C6.01,31.624 6.371,30.325 6.802,29.086C5.734,27.78 4.664,26.093 3.778,24.258C4.666,23.279 5.654,22.361 6.669,21.531C6.443,19.858 6.412,17.861 6.618,15.833C7.887,15.464 9.209,15.198 10.509,15.022C11.19,13.478 12.209,11.76 13.445,10.139C14.72,10.488 15.985,10.953 17.186,11.483Z" style="fill:url(#_Linear23);"/>
            </g>
            <g transform="matrix(1.02244,0,0,1.02244,-5.59785,-5.65123)">
                <g transform="matrix(7.22365e-17,1.17971,-1.15479,7.07106e-17,401.469,-83.2563)">
                    <path d="M303.199,136.521L293.48,132.403C293.11,132.247 292.87,131.884 292.87,131.483L292.87,128.977C292.87,128.576 293.109,128.214 293.478,128.057L303.197,123.918C303.506,123.786 303.86,123.818 304.141,124.004C304.421,124.189 304.589,124.502 304.589,124.838L304.589,127.772C304.589,128.182 304.338,128.551 303.956,128.702L300.137,130.234L303.952,131.748C304.336,131.898 304.589,132.268 304.589,132.68L304.589,135.6C304.589,135.935 304.421,136.248 304.141,136.433C303.862,136.619 303.508,136.651 303.199,136.521Z" style="fill:white;"/>
                </g>
                <g transform="matrix(7.22365e-17,-1.17971,1.17971,7.22365e-17,110.34,621.255)">
                    <path d="M303.199,136.521L293.48,132.403C293.11,132.247 292.87,131.884 292.87,131.483L292.87,128.977C292.87,128.576 293.109,128.214 293.478,128.057L303.197,123.918C303.506,123.786 303.86,123.818 304.141,124.004C304.421,124.189 304.589,124.502 304.589,124.838L304.589,127.772C304.589,128.182 304.338,128.551 303.956,128.702L300.072,130.235L303.952,131.748C304.336,131.898 304.589,132.268 304.589,132.68L304.589,135.6C304.589,135.935 304.421,136.248 304.141,136.433C303.862,136.619 303.508,136.651 303.199,136.521Z" style="fill:white;"/>
                </g>
            </g>
        </g>
    </g>
    <defs>
        <linearGradient id="_Linear1" x1="0" y1="0" x2="1" y2="0" gradientUnits="userSpaceOnUse" gradientTransform="matrix(42.2333,-40.901,40.901,42.2333,-0.65402,45.8272)"><stop offset="0" style="stop-color:rgb(255,162,22);stop-opacity:1"/><stop offset="0.2" style="stop-color:rgb(248,105,42);stop-opacity:1"/><stop offset="0.41" style="stop-color:rgb(241,47,63);stop-opacity:1"/><stop offset="1" style="stop-color:rgb(238,21,72);stop-opacity:1"/></linearGradient>
        <linearGradient id="_Linear2" x1="0" y1="0" x2="1" y2="0" gradientUnits="userSpaceOnUse" gradientTransform="matrix(57.39,-12.7644,12.7644,57.39,-8.44302,31.8974)"><stop offset="0" style="stop-color:rgb(255,162,22);stop-opacity:1"/><stop offset="0.2" style="stop-color:rgb(248,105,42);stop-opacity:1"/><stop offset="0.41" style="stop-color:rgb(241,47,63);stop-opacity:1"/><stop offset="1" style="stop-color:rgb(238,21,72);stop-opacity:1"/></linearGradient>
        <linearGradient id="_Linear3" x1="0" y1="0" x2="1" y2="0" gradientUnits="userSpaceOnUse" gradientTransform="matrix(55.5882,19.144,-19.144,55.5882,-7.79411,15.951)"><stop offset="0" style="stop-color:rgb(255,162,22);stop-opacity:1"/><stop offset="0.2" style="stop-color:rgb(248,105,42);stop-opacity:1"/><stop offset="0.41" style="stop-color:rgb(241,47,63);stop-opacity:1"/><stop offset="1" style="stop-color:rgb(238,21,72);stop-opacity:1"/></linearGradient>
        <linearGradient id="_Linear4" x1="0" y1="0" x2="1" y2="0" gradientUnits="userSpaceOnUse" gradientTransform="matrix(37.3603,45.3955,-45.3955,37.3603,1.10097,2.70019)"><stop offset="0" style="stop-color:rgb(255,162,22);stop-opacity:1"/><stop offset="0.2" style="stop-color:rgb(248,105,42);stop-opacity:1"/><stop offset="0.41" style="stop-color:rgb(241,47,63);stop-opacity:1"/><stop offset="1" style="stop-color:rgb(238,21,72);stop-opacity:1"/></linearGradient>
        <linearGradient id="_Linear5" x1="0" y1="0" x2="1" y2="0" gradientUnits="userSpaceOnUse" gradientTransform="matrix(8.09262,58.2327,-58.2327,8.09262,15.6137,-3.93958)"><stop offset="0" style="stop-color:rgb(255,162,22);stop-opacity:1"/><stop offset="0.2" style="stop-color:rgb(248,105,42);stop-opacity:1"/><stop offset="0.41" style="stop-color:rgb(241,47,63);stop-opacity:1"/><stop offset="1" style="stop-color:rgb(238,21,72);stop-opacity:1"/></linearGradient>
        <linearGradient id="_Linear6" x1="0" y1="0" x2="1" y2="0" gradientUnits="userSpaceOnUse" gradientTransform="matrix(-23.5664,53.8625,-53.8625,-23.5664,31.4558,-2.00625)"><stop offset="0" style="stop-color:rgb(255,162,22);stop-opacity:1"/><stop offset="0.2" style="stop-color:rgb(248,105,42);stop-opacity:1"/><stop offset="0.41" style="stop-color:rgb(241,47,63);stop-opacity:1"/><stop offset="1" style="stop-color:rgb(238,21,72);stop-opacity:1"/></linearGradient>
        <linearGradient id="_Linear7" x1="0" y1="0" x2="1" y2="0" gradientUnits="userSpaceOnUse" gradientTransform="matrix(-48.2617,33.5761,-33.5761,-48.2617,43.9458,7.92888)"><stop offset="0" style="stop-color:rgb(255,162,22);stop-opacity:1"/><stop offset="0.2" style="stop-color:rgb(248,105,42);stop-opacity:1"/><stop offset="0.41" style="stop-color:rgb(241,47,63);stop-opacity:1"/><stop offset="1" style="stop-color:rgb(238,21,72);stop-opacity:1"/></linearGradient>
        <linearGradient id="_Linear8" x1="0" y1="0" x2="1" y2="0" gradientUnits="userSpaceOnUse" gradientTransform="matrix(-58.6958,3.3681,-3.3681,-58.6958,49.393,22.93)"><stop offset="0" style="stop-color:rgb(255,162,22);stop-opacity:1"/><stop offset="0.2" style="stop-color:rgb(248,105,42);stop-opacity:1"/><stop offset="0.41" style="stop-color:rgb(241,47,63);stop-opacity:1"/><stop offset="1" style="stop-color:rgb(238,21,72);stop-opacity:1"/></linearGradient>
        <linearGradient id="_Linear9" x1="0" y1="0" x2="1" y2="0" gradientUnits="userSpaceOnUse" gradientTransform="matrix(-51.7856,-27.8351,27.8351,-51.7856,46.1879,38.5644)"><stop offset="0" style="stop-color:rgb(255,162,22);stop-opacity:1"/><stop offset="0.2" style="stop-color:rgb(248,105,42);stop-opacity:1"/><stop offset="0.41" style="stop-color:rgb(241,47,63);stop-opacity:1"/><stop offset="1" style="stop-color:rgb(238,21,72);stop-opacity:1"/></linearGradient>
        <linearGradient id="_Linear10" x1="0" y1="0" x2="1" y2="0" gradientUnits="userSpaceOnUse" gradientTransform="matrix(-29.5729,-50.8132,50.8132,-29.5729,35.2775,50.2122)"><stop offset="0" style="stop-color:rgb(255,162,22);stop-opacity:1"/><stop offset="0.2" style="stop-color:rgb(248,105,42);stop-opacity:1"/><stop offset="0.41" style="stop-color:rgb(241,47,63);stop-opacity:1"/><stop offset="1" style="stop-color:rgb(238,21,72);stop-opacity:1"/></linearGradient>
        <linearGradient id="_Linear11" x1="0" y1="0" x2="1" y2="0" gradientUnits="userSpaceOnUse" gradientTransform="matrix(1.37838,-58.7762,58.7762,1.37838,19.8857,54.4314)"><stop offset="0" style="stop-color:rgb(255,162,22);stop-opacity:1"/><stop offset="0.2" style="stop-color:rgb(248,105,42);stop-opacity:1"/><stop offset="0.41" style="stop-color:rgb(241,47,63);stop-opacity:1"/><stop offset="1" style="stop-color:rgb(238,21,72);stop-opacity:1"/></linearGradient>
        <linearGradient id="_Linear12" x1="0" y1="0" x2="1" y2="0" gradientUnits="userSpaceOnUse" gradientTransform="matrix(57.39,-12.7644,12.7644,57.39,-8.44302,31.8974)"><stop offset="0" style="stop-color:rgb(255,162,22);stop-opacity:1"/><stop offset="0.2" style="stop-color:rgb(248,105,42);stop-opacity:1"/><stop offset="0.41" style="stop-color:rgb(241,47,63);stop-opacity:1"/><stop offset="1" style="stop-color:rgb(238,21,72);stop-opacity:1"/></linearGradient>
        <linearGradient id="_Linear13" x1="0" y1="0" x2="1" y2="0" gradientUnits="userSpaceOnUse" gradientTransform="matrix(55.5882,19.144,-19.144,55.5882,-7.79411,15.951)"><stop offset="0" style="stop-color:rgb(255,162,22);stop-opacity:1"/><stop offset="0.2" style="stop-color:rgb(248,105,42);stop-opacity:1"/><stop offset="0.41" style="stop-color:rgb(241,47,63);stop-opacity:1"/><stop offset="1" style="stop-color:rgb(238,21,72);stop-opacity:1"/></linearGradient>
        <linearGradient id="_Linear14" x1="0" y1="0" x2="1" y2="0" gradientUnits="userSpaceOnUse" gradientTransform="matrix(37.3603,45.3955,-45.3955,37.3603,1.10097,2.70019)"><stop offset="0" style="stop-color:rgb(255,162,22);stop-opacity:1"/><stop offset="0.2" style="stop-color:rgb(248,105,42);stop-opacity:1"/><stop offset="0.41" style="stop-color:rgb(241,47,63);stop-opacity:1"/><stop offset="1" style="stop-color:rgb(238,21,72);stop-opacity:1"/></linearGradient>
        <linearGradient id="_Linear15" x1="0" y1="0" x2="1" y2="0" gradientUnits="userSpaceOnUse" gradientTransform="matrix(8.09262,58.2327,-58.2327,8.09262,15.6137,-3.93958)"><stop offset="0" style="stop-color:rgb(255,162,22);stop-opacity:1"/><stop offset="0.2" style="stop-color:rgb(248,105,42);stop-opacity:1"/><stop offset="0.41" style="stop-color:rgb(241,47,63);stop-opacity:1"/><stop offset="1" style="stop-color:rgb(238,21,72);stop-opacity:1"/></linearGradient>
        <linearGradient id="_Linear16" x1="0" y1="0" x2="1" y2="0" gradientUnits="userSpaceOnUse" gradientTransform="matrix(-23.5664,53.8625,-53.8625,-23.5664,31.4558,-2.00625)"><stop offset="0" style="stop-color:rgb(255,162,22);stop-opacity:1"/><stop offset="0.2" style="stop-color:rgb(248,105,42);stop-opacity:1"/><stop offset="0.41" style="stop-color:rgb(241,47,63);stop-opacity:1"/><stop offset="1" style="stop-color:rgb(238,21,72);stop-opacity:1"/></linearGradient>
        <linearGradient id="_Linear17" x1="0" y1="0" x2="1" y2="0" gradientUnits="userSpaceOnUse" gradientTransform="matrix(-48.2617,33.5761,-33.5761,-48.2617,43.9458,7.92888)"><stop offset="0" style="stop-color:rgb(255,162,22);stop-opacity:1"/><stop offset="0.2" style="stop-color:rgb(248,105,42);stop-opacity:1"/><stop offset="0.41" style="stop-color:rgb(241,47,63);stop-opacity:1"/><stop offset="1" style="stop-color:rgb(238,21,72);stop-opacity:1"/></linearGradient>
        <linearGradient id="_Linear18" x1="0" y1="0" x2="1" y2="0" gradientUnits="userSpaceOnUse" gradientTransform="matrix(-58.6958,3.3681,-3.3681,-58.6958,49.393,22.93)"><stop offset="0" style="stop-color:rgb(255,162,22);stop-opacity:1"/><stop offset="0.2" style="stop-color:rgb(248,105,42);stop-opacity:1"/><stop offset="0.41" style="stop-color:rgb(241,47,63);stop-opacity:1"/><stop offset="1" style="stop-color:rgb(238,21,72);stop-opacity:1"/></linearGradient>
        <linearGradient id="_Linear19" x1="0" y1="0" x2="1" y2="0" gradientUnits="userSpaceOnUse" gradientTransform="matrix(-51.7856,-27.8351,27.8351,-51.7856,46.1879,38.5644)"><stop offset="0" style="stop-color:rgb(255,162,22);stop-opacity:1"/><stop offset="0.2" style="stop-color:rgb(248,105,42);stop-opacity:1"/><stop offset="0.41" style="stop-color:rgb(241,47,63);stop-opacity:1"/><stop offset="1" style="stop-color:rgb(238,21,72);stop-opacity:1"/></linearGradient>
        <linearGradient id="_Linear20" x1="0" y1="0" x2="1" y2="0" gradientUnits="userSpaceOnUse" gradientTransform="matrix(-29.5729,-50.8132,50.8132,-29.5729,35.2775,50.2122)"><stop offset="0" style="stop-color:rgb(255,162,22);stop-opacity:1"/><stop offset="0.2" style="stop-color:rgb(248,105,42);stop-opacity:1"/><stop offset="0.41" style="stop-color:rgb(241,47,63);stop-opacity:1"/><stop offset="1" style="stop-color:rgb(238,21,72);stop-opacity:1"/></linearGradient>
        <linearGradient id="_Linear21" x1="0" y1="0" x2="1" y2="0" gradientUnits="userSpaceOnUse" gradientTransform="matrix(1.37838,-58.7762,58.7762,1.37838,19.8857,54.4314)"><stop offset="0" style="stop-color:rgb(255,162,22);stop-opacity:1"/><stop offset="0.2" style="stop-color:rgb(248,105,42);stop-opacity:1"/><stop offset="0.41" style="stop-color:rgb(241,47,63);stop-opacity:1"/><stop offset="1" style="stop-color:rgb(238,21,72);stop-opacity:1"/></linearGradient>
        <linearGradient id="_Linear22" x1="0" y1="0" x2="1" y2="0" gradientUnits="userSpaceOnUse" gradientTransform="matrix(1.37838,-58.7762,58.7762,1.37838,19.8857,54.4314)"><stop offset="0" style="stop-color:rgb(255,162,22);stop-opacity:1"/><stop offset="0.2" style="stop-color:rgb(248,105,42);stop-opacity:1"/><stop offset="0.41" style="stop-color:rgb(241,47,63);stop-opacity:1"/><stop offset="1" style="stop-color:rgb(238,21,72);stop-opacity:1"/></linearGradient>
        <linearGradient id="_Linear23" x1="0" y1="0" x2="1" y2="0" gradientUnits="userSpaceOnUse" gradientTransform="matrix(55.5882,19.144,-19.144,55.5882,-7.79411,15.951)"><stop offset="0" style="stop-color:rgb(255,162,22);stop-opacity:1"/><stop offset="0.2" style="stop-color:rgb(248,105,42);stop-opacity:1"/><stop offset="0.41" style="stop-color:rgb(241,47,63);stop-opacity:1"/><stop offset="1" style="stop-color:rgb(238,21,72);stop-opacity:1"/></linearGradient>
    </defs>
</svg>
