<svg width="1067" height="1091" viewBox="0 0 1067 1091" fill="none" xmlns="http://www.w3.org/2000/svg">
<style>
  .outglow-two { animation: breathe-outer 9s ease-in-out infinite; transform-origin: center; }
  .outglow-one { animation: breathe-mid 5s ease-in-out infinite; transform-origin: center; }
  .nucleus { animation: breathe-core 11s ease-in-out infinite; transform-origin: center; }

  @keyframes breathe-outer {
    0%, 100% { transform: scale(1) rotate(0deg); }
    50% { transform: scale(1.05) rotate(3deg); }
  }
  @keyframes breathe-mid {
    0%, 100% { transform: scale(1) rotate(0deg); }
    50% { transform: scale(0.94) rotate(-4deg); }
  }
  @keyframes breathe-core {
    0%, 100% { transform: scale(1) rotate(0deg); }
    50% { transform: scale(1.06) rotate(2deg); }
  }
</style>
<g class="outglow-two" filter="url(#filter0_f_6_1923)">
<path fill-rule="evenodd" clip-rule="evenodd" d="M531.781 230.022C669.764 228.711 812.712 287.089 855.442 418.296C898.242 549.719 815.835 679.295 704.979 761.847C588.96 848.243 434.909 902.868 316.712 819.477C194.644 733.355 175.294 564.609 226.498 424.268C272.204 298.998 398.439 231.288 531.781 230.022Z" fill="url(#paint0_linear_6_1923)" fill-opacity="0.6"/>
</g>
<g class="outglow-one" filter="url(#filter1_f_6_1923)">
<path fill-rule="evenodd" clip-rule="evenodd" d="M541.435 268.179C591.895 250.222 640.188 180.199 687.441 205.416C736.816 231.765 706.67 314.464 726.346 366.857C738.695 399.741 780.605 420.287 781.325 455.407C782.087 492.591 726.718 516.157 730.166 553.188C734.843 603.412 803.413 633.715 802.624 684.149C801.944 727.557 755.514 755.774 726.49 788.058C692.789 825.546 667.583 893.91 617.304 890.289C558.903 886.084 534.584 810.083 490.901 771.094C466.011 748.878 439.011 730.838 413.966 708.798C390.737 688.355 369.893 666.807 347.79 645.153C319.547 617.484 257.331 601.317 264.583 562.45C273.262 515.936 374.588 527.573 378.527 480.42C384.126 413.415 266.497 367.833 286.215 303.551C300.979 255.417 385.497 302.031 435.367 295.119C471.899 290.056 506.688 280.544 541.435 268.179Z" fill="url(#paint1_linear_6_1923)" fill-opacity="0.8"/>
</g>
<g class="nucleus" filter="url(#filter2_f_6_1923)">
<path fill-rule="evenodd" clip-rule="evenodd" d="M598.115 281.16C647.418 286.123 702.334 262.48 744.012 289.281C785.661 316.063 791.246 373.559 811.835 418.591C830.488 459.392 848.396 498.528 859.545 541.983C873.739 597.303 921.533 663.446 886.159 708.285C848.494 756.028 764.66 709.789 708.59 733.331C662.85 752.535 645.527 814.627 598.115 829.223C546.654 845.064 489.93 835.909 439.883 816.048C385.796 794.584 318.617 768.343 303.266 712.214C287.069 652.991 362.94 603.348 364.93 541.983C366.817 483.798 300.3 434.564 314.103 378.008C327.749 322.095 379.74 276.673 434.214 258.097C487.338 239.982 542.269 275.539 598.115 281.16Z" fill="url(#paint2_linear_6_1923)"/>
</g>
<defs>
<filter id="filter0_f_6_1923" x="0" y="30" width="1066.95" height="1030.87" filterUnits="userSpaceOnUse" color-interpolation-filters="sRGB">
<feFlood flood-opacity="0" result="BackgroundImageFix"/>
<feBlend mode="normal" in="SourceGraphic" in2="BackgroundImageFix" result="shape"/>
<feGaussianBlur stdDeviation="100" result="effect1_foregroundBlur_6_1923"/>
</filter>
<filter id="filter1_f_6_1923" x="64" y="0" width="938.63" height="1090.43" filterUnits="userSpaceOnUse" color-interpolation-filters="sRGB">
<feFlood flood-opacity="0" result="BackgroundImageFix"/>
<feBlend mode="normal" in="SourceGraphic" in2="BackgroundImageFix" result="shape"/>
<feGaussianBlur stdDeviation="100" result="effect1_foregroundBlur_6_1923"/>
</filter>
<filter id="filter2_f_6_1923" x="201" y="153" width="797.937" height="784.283" filterUnits="userSpaceOnUse" color-interpolation-filters="sRGB">
<feFlood flood-opacity="0" result="BackgroundImageFix"/>
<feBlend mode="normal" in="SourceGraphic" in2="BackgroundImageFix" result="shape"/>
<feGaussianBlur stdDeviation="50" result="effect1_foregroundBlur_6_1923"/>
</filter>
<linearGradient id="paint0_linear_6_1923" x1="200" y1="860.872" x2="931" y2="541.048" gradientUnits="userSpaceOnUse">
<stop stop-color="#CFA5FE"/>
<stop offset="0.0666667" stop-color="#CFA5FE"/>
<stop offset="0.133333" stop-color="#CFA5FE"/>
<stop offset="0.2" stop-color="#CFA5FE"/>
<stop offset="0.266667" stop-color="#CFA5FE"/>
<stop offset="0.333333" stop-color="#CFA5FE"/>
<stop offset="0.4" stop-color="#CFA5FE"/>
<stop offset="0.466667" stop-color="#CFA5FE"/>
<stop offset="0.533333" stop-color="#CFA5FE"/>
<stop offset="0.6" stop-color="#CFA5FE"/>
<stop offset="0.666667" stop-color="#CFA5FE"/>
<stop offset="0.733333" stop-color="#CFA5FE"/>
<stop offset="0.8" stop-color="#CFA5FE"/>
<stop offset="0.866667" stop-color="#CFA5FE"/>
<stop offset="0.933333" stop-color="#CFA5FE"/>
<stop offset="1" stop-color="#CFA5FE"/>
</linearGradient>
<linearGradient id="paint1_linear_6_1923" x1="264" y1="890.427" x2="900.964" y2="684.778" gradientUnits="userSpaceOnUse">
<stop stop-color="#E9D5FF"/>
<stop offset="0.0666667" stop-color="#E9D5FF"/>
<stop offset="0.133333" stop-color="#E9D5FF"/>
<stop offset="0.2" stop-color="#E9D5FF"/>
<stop offset="0.266667" stop-color="#E9D5FF"/>
<stop offset="0.333333" stop-color="#E9D5FF"/>
<stop offset="0.4" stop-color="#E9D5FF"/>
<stop offset="0.466667" stop-color="#E9D5FF"/>
<stop offset="0.533333" stop-color="#E9D5FF"/>
<stop offset="0.6" stop-color="#E9D5FF"/>
<stop offset="0.666667" stop-color="#E9D5FF"/>
<stop offset="0.733333" stop-color="#E9D5FF"/>
<stop offset="0.8" stop-color="#E9D5FF"/>
<stop offset="0.866667" stop-color="#E9D5FF"/>
<stop offset="0.933333" stop-color="#E9D5FF"/>
<stop offset="1" stop-color="#E9D5FF"/>
</linearGradient>
<linearGradient id="paint2_linear_6_1923" x1="21" y1="508" x2="588.947" y2="1117.87" gradientUnits="userSpaceOnUse">
<stop stop-color="#FF0054"/>
<stop offset="0.00397634" stop-color="#FF5400" stop-opacity="0.8"/>
<stop offset="0.0830178" stop-color="#FF2A2A" stop-opacity="0.600948"/>
<stop offset="0.157765" stop-color="#FF0054" stop-opacity="0.4"/>
<stop offset="0.377121" stop-color="#DB471F" stop-opacity="0.89"/>
<stop offset="0.70547" stop-color="#4510A0"/>
<stop offset="0.961923" stop-color="#390099"/>
</linearGradient>
</defs>
</svg>
